<?xml version="1.0" standalone="no"?>
<!DOCTYPE svg PUBLIC "-//W3C//DTD SVG 20010904//EN"
 "http://www.w3.org/TR/2001/REC-SVG-20010904/DTD/svg10.dtd">
<svg version="1.0" xmlns="http://www.w3.org/2000/svg"
 width="694.000000pt" height="631.000000pt" viewBox="0 0 694.000000 631.000000"
 preserveAspectRatio="xMidYMid meet">

<g transform="translate(0.000000,631.000000) scale(0.100000,-0.100000)"
fill="#000000" stroke="none">
<path d="M3260 5999 c-755 -58 -1477 -427 -1962 -1004 -240 -285 -428 -619
-537 -951 -61 -185 -84 -284 -122 -514 -19 -114 -23 -175 -23 -390 -1 -273 5
-330 56 -580 153 -747 622 -1419 1277 -1828 278 -175 602 -309 906 -377 213
-47 320 -58 595 -59 289 -1 452 18 697 79 820 206 1553 822 1899 1596 249 556
317 1191 189 1764 -99 442 -322 899 -607 1240 -273 328 -640 610 -1015 781
-416 189 -905 277 -1353 243z m309 -1160 c98 -43 161 -118 181 -213 l11 -52
112 -47 c175 -72 371 -158 380 -167 5 -4 30 14 56 40 123 123 304 119 432 -9
71 -72 94 -132 87 -235 -8 -120 -64 -202 -173 -252 -72 -33 -147 -40 -225 -20
l-64 17 -155 -153 c-86 -84 -165 -163 -176 -175 -11 -13 -25 -23 -30 -23 -13
0 -95 82 -95 94 0 6 77 88 172 183 l172 172 -22 63 c-12 35 -22 84 -22 109 l0
47 -152 67 c-83 37 -174 75 -200 86 -27 10 -67 28 -88 39 l-40 20 -24 -37
c-60 -95 -141 -138 -261 -138 -64 0 -90 5 -129 24 -49 24 -110 77 -136 119
l-15 24 -215 -90 c-118 -49 -226 -95 -240 -101 -23 -11 -25 -17 -25 -79 0 -51
-5 -76 -22 -104 l-22 -37 180 -177 c98 -98 179 -180 179 -183 0 -3 -22 -30
-48 -60 l-48 -55 -188 184 -187 184 -32 -12 c-122 -44 -277 -9 -353 80 -15 18
-38 57 -52 87 -21 46 -24 64 -20 130 8 129 73 222 192 277 50 23 68 26 125 22
80 -6 148 -36 202 -90 l40 -40 92 40 c51 22 165 70 254 108 l161 68 6 39 c31
189 247 305 425 226z m-47 -706 c2 -10 4 -94 3 -188 l0 -170 -72 -3 -73 -3 0
191 0 190 69 0 c57 0 69 -3 73 -17z m-1222 -357 c54 -15 53 -6 10 -186 -48
-196 -47 -185 -11 -200 44 -18 127 -112 143 -162 l15 -43 156 -3 157 -3 0 -74
0 -75 -154 0 -155 0 -32 -61 c-33 -62 -100 -124 -146 -135 -13 -4 -23 -13 -23
-21 0 -8 18 -78 40 -155 22 -78 40 -147 40 -154 0 -7 -24 -20 -52 -29 -29 -9
-58 -18 -65 -21 -7 -3 -31 56 -67 163 -31 92 -60 173 -64 179 -4 5 -28 18 -54
28 -65 24 -132 86 -165 154 -23 47 -28 70 -28 132 0 151 86 256 251 305 6 2
35 89 65 195 50 175 56 190 74 185 11 -4 40 -12 65 -19z m2428 -113 c86 -276
71 -243 128 -265 149 -54 239 -230 191 -372 -33 -98 -123 -187 -204 -202 -33
-6 -33 -7 -78 -148 -24 -77 -49 -162 -56 -188 l-11 -46 -66 25 c-37 13 -68 26
-70 28 -2 2 16 74 41 162 l44 158 -31 13 c-70 31 -146 113 -162 175 l-6 27
-159 0 -159 0 0 75 0 74 157 3 156 3 15 45 c19 55 103 142 156 160 26 8 36 16
32 27 -6 15 -78 276 -89 324 -6 24 -4 26 56 40 34 8 65 13 68 12 4 -2 25 -60
47 -130z m-1188 -33 c96 -15 212 -76 283 -147 112 -113 148 -193 155 -339 8
-178 -34 -293 -152 -409 -108 -107 -226 -155 -381 -155 -156 0 -273 50 -383
164 -44 45 -82 95 -97 129 -181 395 145 824 575 757z m-543 -1053 c-1 -5 -80
-86 -175 -181 l-173 -172 17 -40 c9 -21 17 -66 18 -100 l1 -60 225 -97 c124
-53 232 -99 240 -102 11 -4 23 7 38 34 28 49 96 106 148 125 l39 13 3 222 2
221 69 0 68 0 7 -77 c3 -42 6 -140 6 -219 l0 -143 43 -19 c56 -25 99 -63 134
-117 15 -25 33 -43 38 -41 6 3 114 48 240 102 l230 96 1 67 c0 42 7 78 18 100
l18 33 -178 180 -178 179 51 50 c42 43 53 49 69 41 11 -6 93 -85 183 -175
l163 -165 47 21 c69 32 169 30 242 -5 117 -54 179 -153 179 -287 0 -118 -69
-225 -179 -275 -70 -31 -190 -29 -256 6 -27 14 -65 42 -83 61 l-34 35 -46 -21
c-26 -11 -144 -59 -262 -107 l-215 -86 -7 -43 c-15 -86 -87 -174 -175 -213
-93 -41 -214 -32 -296 23 -55 36 -112 117 -128 182 -6 26 -15 47 -19 47 -5 0
-117 47 -250 105 -132 58 -245 105 -249 105 -5 0 -24 -14 -42 -32 -149 -139
-395 -97 -491 85 -19 35 -23 58 -23 132 0 78 4 97 27 140 59 111 154 169 278
169 60 1 84 -4 118 -22 l44 -23 166 163 c92 90 173 171 181 182 13 17 17 15
62 -35 26 -30 47 -58 46 -62z"/>
<path d="M3388 4664 c-34 -18 -58 -62 -58 -104 0 -103 117 -157 194 -90 106
93 -12 262 -136 194z"/>
<path d="M2323 4286 c-81 -36 -83 -170 -3 -211 62 -32 139 -4 166 61 20 47 11
83 -29 122 -39 37 -90 47 -134 28z"/>
<path d="M4473 4285 c-56 -24 -83 -89 -63 -150 15 -46 61 -75 119 -75 36 0 49
6 77 34 29 29 34 41 34 79 0 53 -27 93 -76 113 -41 17 -50 17 -91 -1z"/>
<path d="M2072 3202 c-99 -92 11 -254 132 -197 44 21 66 59 66 116 0 33 -6 47
-34 75 -30 30 -40 34 -84 34 -41 0 -55 -5 -80 -28z"/>
<path d="M4664 3196 c-29 -29 -34 -41 -34 -79 0 -113 141 -167 210 -80 43 55
38 107 -15 160 -28 28 -40 33 -80 33 -40 0 -52 -5 -81 -34z"/>
<path d="M3333 3432 c-149 -53 -233 -171 -233 -328 0 -92 31 -166 96 -232 78
-78 147 -107 254 -106 72 0 94 4 147 28 162 74 244 263 187 430 -22 64 -110
158 -181 192 -74 37 -193 43 -270 16z m91 -118 c30 -30 14 -74 -34 -94 -17 -7
-39 -29 -52 -52 -39 -70 -101 -63 -106 11 -3 34 2 50 24 78 50 66 132 94 168
57z"/>
<path d="M2325 2181 c-33 -14 -56 -47 -62 -89 -14 -101 92 -175 175 -122 125
78 24 267 -113 211z"/>
<path d="M4480 2183 c-30 -11 -70 -57 -76 -88 -12 -68 51 -145 119 -145 36 0
81 23 101 52 20 28 21 90 1 127 -23 45 -96 72 -145 54z"/>
<path d="M3420 1813 c-61 -20 -90 -57 -90 -113 0 -126 171 -167 225 -54 29 62
2 134 -60 160 -36 14 -49 16 -75 7z"/>
</g>
</svg>
